<?xml version="1.0" encoding="UTF-8" standalone="no"?>
<!-- Created with Inkscape (http://www.inkscape.org/) -->

<svg
   xmlns:dc="http://purl.org/dc/elements/1.1/"
   xmlns:cc="http://creativecommons.org/ns#"
   xmlns:rdf="http://www.w3.org/1999/02/22-rdf-syntax-ns#"
   xmlns:svg="http://www.w3.org/2000/svg"
   xmlns="http://www.w3.org/2000/svg"
   xmlns:sodipodi="http://sodipodi.sourceforge.net/DTD/sodipodi-0.dtd"
   xmlns:inkscape="http://www.inkscape.org/namespaces/inkscape"
   width="600"
   height="600"
   viewBox="0 0 600.00001 600.00001"
   id="svg2"
   version="1.1"
   inkscape:version="0.91 r"
   sodipodi:docname="drawing-1.svg">
  <defs
     id="defs4" />
  <sodipodi:namedview
     id="base"
     pagecolor="#ffffff"
     bordercolor="#666666"
     borderopacity="1.0"
     inkscape:pageopacity="0.0"
     inkscape:pageshadow="2"
     inkscape:zoom="0.70710678"
     inkscape:cx="244.84475"
     inkscape:cy="379.23852"
     inkscape:document-units="px"
     inkscape:current-layer="layer1"
     showgrid="false"
     units="px"
     inkscape:showpageshadow="false"
     inkscape:window-width="1137"
     inkscape:window-height="793"
     inkscape:window-x="0"
     inkscape:window-y="25"
     inkscape:window-maximized="1" />
  <metadata
     id="metadata7">
    <rdf:RDF>
      <cc:Work
         rdf:about="">
        <dc:format>image/svg+xml</dc:format>
        <dc:type
           rdf:resource="http://purl.org/dc/dcmitype/StillImage" />
        <dc:title></dc:title>
      </cc:Work>
    </rdf:RDF>
  </metadata>
  <g
     inkscape:groupmode="layer"
     id="layer1"
     inkscape:label="Layer 1">
    <circle
       style="fill:#ffffff;stroke:#000000;stroke-width:2;stroke-miterlimit:4;stroke-dasharray:none"
       id="path3337"
       cx="300"
       cy="300"
       r="295" />
    <path
       style="fill:none;stroke:#000000;stroke-width:6.00000001;stroke-miterlimit:4;stroke-dasharray:none"
       id="path4182"
       sodipodi:type="arc"
       sodipodi:cx="396.34451"
       sodipodi:cy="173.13333"
       sodipodi:rx="200.00009"
       sodipodi:ry="200.00002"
       sodipodi:start="0"
       sodipodi:end="2.3217254"
       d="M 596.3446,173.13333 A 200.00009,200.00002 0 0 1 476.05424,356.5628 200.00009,200.00002 0 0 1 259.8808,319.34439"
       transform="matrix(0.92718392,0.37460642,-0.37460678,0.92718378,0,0)"
       sodipodi:open="true" />
    <path
       style="fill:#000000;fill-rule:evenodd;stroke:#000000;stroke-width:6;stroke-linecap:butt;stroke-linejoin:miter;stroke-miterlimit:4;stroke-dasharray:none;stroke-opacity:1"
       d="m 266,462 -12,70"
       id="path4186"
       inkscape:connector-curvature="0" />
    <path
       style="fill:#000000;fill-rule:evenodd;stroke:#000000;stroke-width:6;stroke-linecap:butt;stroke-linejoin:miter;stroke-miterlimit:4;stroke-dasharray:none;stroke-opacity:1"
       d="m 317.83116,470.48984 0.33768,71.02032"
       id="path4186-0"
       inkscape:connector-curvature="0" />
    <path
       style="fill:#000000;fill-rule:evenodd;stroke:#000000;stroke-width:6;stroke-linecap:butt;stroke-linejoin:miter;stroke-miterlimit:4;stroke-dasharray:none;stroke-opacity:1"
       d="m 364.5151,453.82012 12.6651,69.88272"
       id="path4186-0-1"
       inkscape:connector-curvature="0" />
    <path
       style="fill:#000000;fill-rule:evenodd;stroke:#000000;stroke-width:6;stroke-linecap:butt;stroke-linejoin:miter;stroke-miterlimit:4;stroke-dasharray:none;stroke-opacity:1"
       d="m 410.5438,427.45059 24.6077,66.62178"
       id="path4186-0-1-5"
       inkscape:connector-curvature="0" />
    <path
       style="fill:#000000;fill-rule:evenodd;stroke:#000000;stroke-width:6;stroke-linecap:butt;stroke-linejoin:miter;stroke-miterlimit:4;stroke-dasharray:none;stroke-opacity:1"
       d="m 440.68911,395.30385 54.62178,45.3923"
       id="path4186-0-1-5-5"
       inkscape:connector-curvature="0" />
    <path
       style="fill:#000000;fill-rule:evenodd;stroke:#000000;stroke-width:6;stroke-linecap:butt;stroke-linejoin:miter;stroke-miterlimit:4;stroke-dasharray:none;stroke-opacity:1"
       d="m 221.60886,455.16288 -35.21772,61.67424"
       id="path4186-0-1-5-5-9"
       inkscape:connector-curvature="0" />
    <path
       style="fill:#000000;fill-rule:evenodd;stroke:#000000;stroke-width:6;stroke-linecap:butt;stroke-linejoin:miter;stroke-miterlimit:4;stroke-dasharray:none;stroke-opacity:1"
       d="m 179.5438,403.45059 -45.3923,54.62178"
       id="path4186-0-1-5-5-9-2"
       inkscape:connector-curvature="0" />
    <path
       style="fill:#000000;stroke:#000000;stroke-width:0;stroke-miterlimit:4;stroke-dasharray:none"
       d="M 215.82812 138.00586 A 64.999992 64.999992 0 0 0 209.33398 138.24805 A 64.999992 64.999992 0 0 0 150.24805 208.66602 A 64.999992 64.999992 0 0 0 220.66602 267.75195 A 64.999992 64.999992 0 0 0 279.75195 197.33398 A 64.999992 64.999992 0 0 0 215.82812 138.00586 z M 228.75586 177.23242 A 9.5186873 9.5186873 0 0 1 238.11719 185.91992 A 9.5186873 9.5186873 0 0 1 229.46484 196.23242 A 9.5186873 9.5186873 0 0 1 219.15234 187.58008 A 9.5186873 9.5186873 0 0 1 227.80664 177.26758 A 9.5186873 9.5186873 0 0 1 228.75586 177.23242 z M 198.87109 179.8457 A 9.5186873 9.5186873 0 0 1 208.23242 188.53516 A 9.5186873 9.5186873 0 0 1 199.58008 198.84766 A 9.5186873 9.5186873 0 0 1 189.26758 190.19336 A 9.5186873 9.5186873 0 0 1 197.91992 179.88281 A 9.5186873 9.5186873 0 0 1 198.87109 179.8457 z M 231.37109 207.11719 A 9.5186872 9.5186872 0 0 1 240.73242 215.80664 A 9.5186872 9.5186872 0 0 1 232.08008 226.11719 A 9.5186872 9.5186872 0 0 1 221.76758 217.46484 A 9.5186872 9.5186872 0 0 1 230.41992 207.15234 A 9.5186872 9.5186872 0 0 1 231.37109 207.11719 z M 201.48633 209.73242 A 9.5186873 9.5186873 0 0 1 210.84766 218.41992 A 9.5186873 9.5186873 0 0 1 202.19336 228.73242 A 9.5186873 9.5186873 0 0 1 191.88281 220.08008 A 9.5186873 9.5186873 0 0 1 200.53516 209.76758 A 9.5186873 9.5186873 0 0 1 201.48633 209.73242 z "
       id="path4278-3" />
    <path
       style="fill:#000000;stroke:#000000;stroke-width:4.81312323;stroke-miterlimit:4;stroke-dasharray:none"
       d="m 409.85192,241.41266 a 47.593441,47.593437 0 0 0 51.56074,-43.26458 47.593441,47.593437 0 0 0 -43.26458,-51.56074 47.593441,47.593437 0 0 0 -51.56074,43.26458 47.593441,47.593437 0 0 0 43.26458,51.56074 z m 17.04894,-34.23812 a 11.999995,11.999995 0 0 1 -10.90843,-13.00023 11.999995,11.999995 0 0 1 13.00014,-10.90847 11.999995,11.999995 0 0 1 10.90849,13.00023 11.999995,11.999995 0 0 1 -13.0002,10.90847 z m -27.89343,-2.44038 a 11.999995,11.999995 0 0 1 -10.90849,-13.00023 11.999995,11.999995 0 0 1 13.0002,-10.90847 11.999995,11.999995 0 0 1 10.90843,13.00023 11.999995,11.999995 0 0 1 -13.00014,10.90847 z"
       id="path4278-5-6"
       inkscape:connector-curvature="0" />
    <path
       style="fill:#800000;fill-rule:evenodd;stroke:#800000;stroke-width:1px;stroke-linecap:butt;stroke-linejoin:miter;stroke-opacity:1"
       d="m 399.5,194 28.5,1"
       id="path4487"
       inkscape:connector-curvature="0" />
    <path
       style="fill:#800000;fill-rule:evenodd;stroke:#800000;stroke-width:1px;stroke-linecap:butt;stroke-linejoin:miter;stroke-opacity:1"
       d="m 396.25,197 28.5,1"
       id="path4487-7"
       inkscape:connector-curvature="0" />
    <path
       style="fill:#aa0000;fill-rule:evenodd;stroke:#aa0000;stroke-width:1px;stroke-linecap:butt;stroke-linejoin:miter;stroke-opacity:1"
       d="m 399.55331,188.03311 27.89338,5.93378"
       id="path4487-7-5"
       inkscape:connector-curvature="0" />
    <path
       style="fill:#aa0000;fill-rule:evenodd;stroke:#aa0000;stroke-width:1px;stroke-linecap:butt;stroke-linejoin:miter;stroke-opacity:1"
       d="m 400.3478,192.25993 28.3044,3.48014"
       id="path4487-7-5-5"
       inkscape:connector-curvature="0" />
    <path
       style="fill:#800000;fill-rule:evenodd;stroke:#800000;stroke-width:1px;stroke-linecap:butt;stroke-linejoin:miter;stroke-opacity:1"
       d="m 399.76065,199.24387 28.4787,-1.48774"
       id="path4487-7-8"
       inkscape:connector-curvature="0" />
    <path
       style="fill:#aa0000;fill-rule:evenodd;stroke:#aa0000;stroke-width:1px;stroke-linecap:butt;stroke-linejoin:miter;stroke-opacity:1"
       d="m 399.75,196 28.5,1"
       id="path4487-7-5-1"
       inkscape:connector-curvature="0" />
    <path
       style="fill:#800000;fill-rule:evenodd;stroke:#800000;stroke-width:1px;stroke-linecap:butt;stroke-linejoin:miter;stroke-opacity:1"
       d="m 401.87967,194.48208 28.24066,-3.96416"
       id="path4487-7-51"
       inkscape:connector-curvature="0" />
    <path
       style="fill:#aa0000;fill-rule:evenodd;stroke:#aa0000;stroke-width:1px;stroke-linecap:butt;stroke-linejoin:miter;stroke-opacity:1"
       d="m 399.76065,190.74387 28.4787,-1.48774"
       id="path4487-7-5-3"
       inkscape:connector-curvature="0" />
    <path
       style="fill:#000080;fill-rule:evenodd;stroke:#000080;stroke-width:1px;stroke-linecap:butt;stroke-linejoin:miter;stroke-opacity:1"
       d="m 202.13533,223.14885 28.4787,-1.48774"
       id="path4487-7-5-3-2-6-8"
       inkscape:connector-curvature="0" />
    <path
       style="fill:#000080;fill-rule:evenodd;stroke:#000080;stroke-width:1px;stroke-linecap:butt;stroke-linejoin:miter;stroke-opacity:1"
       d="m 199.6498,217.30879 28.5,1"
       id="path4487-7-5-3-2-6-8-2"
       inkscape:connector-curvature="0" />
    <path
       style="fill:#000080;fill-rule:evenodd;stroke:#000080;stroke-width:1px;stroke-linecap:butt;stroke-linejoin:miter;stroke-opacity:1"
       d="m 200.13303,215.19467 28.24066,-3.96416"
       id="path4487-7-5-3-2-6-8-2-5"
       inkscape:connector-curvature="0" />
    <path
       style="fill:#000080;fill-rule:evenodd;stroke:#000080;stroke-width:1px;stroke-linecap:butt;stroke-linejoin:miter;stroke-opacity:1"
       d="m 201.60597,221.84537 27.7877,-6.41042"
       id="path4487-7-5-3-2-6-8-2-5-8"
       inkscape:connector-curvature="0" />
    <path
       style="fill:#0000ff;fill-rule:evenodd;stroke:#0000ff;stroke-width:1px;stroke-linecap:butt;stroke-linejoin:miter;stroke-opacity:1"
       d="m 198.95334,215.72423 28.4787,-1.48774"
       id="path4487-7-5-3-2-3"
       inkscape:connector-curvature="0" />
    <path
       style="fill:#0000ff;fill-rule:evenodd;stroke:#0000ff;stroke-width:1px;stroke-linecap:butt;stroke-linejoin:miter;stroke-opacity:1"
       d="m 201.70117,217.25364 28.3044,3.48014"
       id="path4487-7-5-3-2-3-9"
       inkscape:connector-curvature="0" />
    <path
       style="fill:#0000ff;fill-rule:evenodd;stroke:#0000ff;stroke-width:1px;stroke-linecap:butt;stroke-linejoin:miter;stroke-opacity:1"
       d="m 202.0866,226.27909 28.24066,-3.96416"
       id="path4487-7-5-3-2-3-9-1"
       inkscape:connector-curvature="0" />
    <path
       style="fill:#0000ff;fill-rule:evenodd;stroke:#0000ff;stroke-width:1px;stroke-linecap:butt;stroke-linejoin:miter;stroke-opacity:1"
       d="m 200.35951,219.59978 27.7877,-6.41042"
       id="path4487-7-5-3-2-3-9-1-5"
       inkscape:connector-curvature="0" />
    <path
       style="fill:#0000ff;fill-rule:evenodd;stroke:#0000ff;stroke-width:1px;stroke-linecap:butt;stroke-linejoin:miter;stroke-opacity:1"
       d="m 196.83202,184.25798 28.4787,-1.48774"
       id="path4487-7-5-3-2-66"
       inkscape:connector-curvature="0" />
    <path
       style="fill:#0000ff;fill-rule:evenodd;stroke:#0000ff;stroke-width:1px;stroke-linecap:butt;stroke-linejoin:miter;stroke-opacity:1"
       d="m 198.01171,196.45634 28.24066,-3.96416"
       id="path4487-7-5-3-2-66-6"
       inkscape:connector-curvature="0" />
    <path
       style="fill:#0000ff;fill-rule:evenodd;stroke:#0000ff;stroke-width:1px;stroke-linecap:butt;stroke-linejoin:miter;stroke-opacity:1"
       d="m 197.17752,190.25485 27.7877,-6.41042"
       id="path4487-7-5-3-2-66-6-8"
       inkscape:connector-curvature="0" />
    <path
       style="fill:#0000ff;fill-rule:evenodd;stroke:#0000ff;stroke-width:1px;stroke-linecap:butt;stroke-linejoin:miter;stroke-opacity:1"
       d="m 198.33339,186.37023 28.3044,3.48014"
       id="path4487-7-5-3-2-66-6-8-4"
       inkscape:connector-curvature="0" />
    <path
       style="fill:#0000ff;fill-rule:evenodd;stroke:#0000ff;stroke-width:1px;stroke-linecap:butt;stroke-linejoin:miter;stroke-opacity:1"
       d="m 198.16564,190.73714 28.3044,3.48014"
       id="path4487-7-5-3-2-66-6-8-4-0"
       inkscape:connector-curvature="0" />
    <path
       style="fill:#000080;fill-rule:evenodd;stroke:#000080;stroke-width:1px;stroke-linecap:butt;stroke-linejoin:miter;stroke-opacity:1"
       d="m 197.18558,187.79351 28.4787,-1.48774"
       id="path4487-7-5-3-2-6-2"
       inkscape:connector-curvature="0" />
    <path
       style="fill:#000080;fill-rule:evenodd;stroke:#000080;stroke-width:1px;stroke-linecap:butt;stroke-linejoin:miter;stroke-opacity:1"
       d="m 197.13685,194.81284 28.24066,-3.96416"
       id="path4487-7-5-3-2-6-2-0"
       inkscape:connector-curvature="0" />
    <path
       style="fill:#000080;fill-rule:evenodd;stroke:#000080;stroke-width:1px;stroke-linecap:butt;stroke-linejoin:miter;stroke-opacity:1"
       d="m 200.19981,189.33199 28.4787,-1.48774"
       id="path4487-7-5-3-2-6-2-0-2"
       inkscape:connector-curvature="0" />
  </g>
</svg>
